<?xml version="1.0" encoding="iso-8859-1"?>
<!-- Uploaded to: SVG Repo, www.svgrepo.com, Generator: SVG Repo Mixer Tools -->
<svg fill="#000000" version="1.1" id="Layer_1" xmlns="http://www.w3.org/2000/svg" xmlns:xlink="http://www.w3.org/1999/xlink" 
	 viewBox="0 0 512 512" xml:space="preserve">
<g>
	<g>
		<g>
			<path d="M486.4,0H110.933c-14.114,0-25.6,11.486-25.6,25.6v25.6H25.6C11.486,51.2,0,62.686,0,76.8v409.6
				C0,500.514,11.486,512,25.6,512h324.267c14.114,0,25.6-11.486,25.6-25.6v-384c0-18.825,15.309-34.133,34.133-34.133
				c18.825,0,34.133,15.309,34.133,34.133v298.667c0,18.825,15.309,34.133,34.133,34.133S512,419.891,512,401.067V25.6
				C512,11.486,500.514,0,486.4,0z M136.533,477.867H51.2c-4.719,0-8.533-3.823-8.533-8.533s3.814-8.533,8.533-8.533h85.333
				c4.719,0,8.533,3.823,8.533,8.533S141.252,477.867,136.533,477.867z M170.667,435.2H51.2c-4.719,0-8.533-3.823-8.533-8.533
				s3.814-8.533,8.533-8.533h119.467c4.719,0,8.533,3.823,8.533,8.533S175.386,435.2,170.667,435.2z M170.667,392.533H51.2
				c-4.719,0-8.533-3.823-8.533-8.533s3.814-8.533,8.533-8.533h119.467c4.719,0,8.533,3.823,8.533,8.533
				S175.386,392.533,170.667,392.533z M170.667,349.867H51.2c-4.719,0-8.533-3.823-8.533-8.533s3.814-8.533,8.533-8.533h119.467
				c4.719,0,8.533,3.823,8.533,8.533S175.386,349.867,170.667,349.867z M170.667,307.2H51.2c-4.719,0-8.533-3.823-8.533-8.533
				s3.814-8.533,8.533-8.533h119.467c4.719,0,8.533,3.823,8.533,8.533S175.386,307.2,170.667,307.2z M59.733,256V145.067
				c0-4.71,3.814-8.533,8.533-8.533H307.2c4.719,0,8.533,3.823,8.533,8.533V256c0,4.71-3.814,8.533-8.533,8.533H68.267
				C63.548,264.533,59.733,260.71,59.733,256z M273.067,477.867h-51.2c-4.719,0-8.533-3.823-8.533-8.533s3.814-8.533,8.533-8.533
				h51.2c4.719,0,8.533,3.823,8.533,8.533S277.786,477.867,273.067,477.867z M324.267,435.2h-102.4
				c-4.719,0-8.533-3.823-8.533-8.533s3.814-8.533,8.533-8.533h102.4c4.719,0,8.533,3.823,8.533,8.533S328.986,435.2,324.267,435.2z
				 M324.267,392.533h-102.4c-4.719,0-8.533-3.823-8.533-8.533s3.814-8.533,8.533-8.533h102.4c4.719,0,8.533,3.823,8.533,8.533
				S328.986,392.533,324.267,392.533z M324.267,349.867h-102.4c-4.719,0-8.533-3.823-8.533-8.533s3.814-8.533,8.533-8.533h102.4
				c4.719,0,8.533,3.823,8.533,8.533S328.986,349.867,324.267,349.867z M324.267,307.2h-102.4c-4.719,0-8.533-3.823-8.533-8.533
				s3.814-8.533,8.533-8.533h102.4c4.719,0,8.533,3.823,8.533,8.533S328.986,307.2,324.267,307.2z M324.267,110.933H51.2
				c-4.719,0-8.533-3.823-8.533-8.533c0-4.71,3.814-8.533,8.533-8.533h273.067c4.719,0,8.533,3.823,8.533,8.533
				C332.8,107.11,328.986,110.933,324.267,110.933z M494.933,401.067c0,9.412-7.654,17.067-17.067,17.067
				s-17.067-7.654-17.067-17.067V102.4c0-28.237-22.963-51.2-51.2-51.2H102.4V25.6c0-4.702,3.823-8.533,8.533-8.533H486.4
				c4.71,0,8.533,3.831,8.533,8.533V401.067z"/>
			<path d="M409.6,93.867c-4.719,0-8.533,3.823-8.533,8.533v375.467c0,4.71,3.814,8.533,8.533,8.533s8.533-3.823,8.533-8.533V102.4
				C418.133,97.69,414.319,93.867,409.6,93.867z"/>
			<rect x="76.8" y="153.6" width="221.867" height="93.867"/>
		</g>
	</g>
</g>
</svg>