<?xml version="1.0" encoding="iso-8859-1"?>
<!-- Uploaded to: SVG Repo, www.svgrepo.com, Generator: SVG Repo Mixer Tools -->
<!DOCTYPE svg PUBLIC "-//W3C//DTD SVG 1.1//EN" "http://www.w3.org/Graphics/SVG/1.1/DTD/svg11.dtd">
<svg fill="#000000" version="1.1" id="Capa_1" xmlns="http://www.w3.org/2000/svg" xmlns:xlink="http://www.w3.org/1999/xlink" 
	 width="800px" height="800px" viewBox="0 0 424.999 424.999"
	 xml:space="preserve">
<g>
	<g>
		<g>
			<path d="M368.563,0H56.433c-6.436,0-11.671,5.236-11.671,11.672v401.655c0,6.437,5.236,11.672,11.671,11.672h312.132
				c6.438,0,11.672-5.236,11.672-11.672V11.672C380.237,5.236,375,0,368.563,0z M125.887,390.722c0,0.713-0.581,1.294-1.297,1.294
				H88.851c-0.717,0-1.297-0.581-1.297-1.294v-35.743c0-0.713,0.581-1.297,1.297-1.297h35.739c0.716,0,1.297,0.583,1.297,1.297
				V390.722z M125.887,312.898c0,0.717-0.581,1.297-1.297,1.297H88.851c-0.717,0-1.297-0.582-1.297-1.297v-35.74
				c0-0.713,0.581-1.297,1.297-1.297h35.739c0.716,0,1.297,0.584,1.297,1.297V312.898z M125.887,235.078
				c0,0.716-0.581,1.297-1.297,1.297H88.851c-0.717,0-1.297-0.581-1.297-1.297v-35.741c0-0.713,0.581-1.296,1.297-1.296h35.739
				c0.716,0,1.297,0.583,1.297,1.296V235.078z M195.927,390.722c0,0.713-0.581,1.294-1.297,1.294h-35.74
				c-0.717,0-1.297-0.581-1.297-1.294v-35.743c0-0.713,0.581-1.297,1.297-1.297h35.74c0.716,0,1.297,0.583,1.297,1.297V390.722z
				 M195.927,312.898c0,0.717-0.581,1.297-1.297,1.297h-35.74c-0.717,0-1.297-0.582-1.297-1.297v-35.74
				c0-0.713,0.581-1.297,1.297-1.297h35.74c0.716,0,1.297,0.584,1.297,1.297V312.898z M195.927,235.078
				c0,0.716-0.581,1.297-1.297,1.297h-35.74c-0.717,0-1.297-0.581-1.297-1.297v-35.741c0-0.713,0.581-1.296,1.297-1.296h35.74
				c0.716,0,1.297,0.583,1.297,1.296V235.078z M265.965,390.722c0,0.713-0.582,1.294-1.297,1.294H228.93
				c-0.719,0-1.299-0.581-1.299-1.294v-35.743c0-0.713,0.58-1.297,1.299-1.297h35.738c0.715,0,1.297,0.583,1.297,1.297V390.722z
				 M265.965,312.898c0,0.717-0.582,1.297-1.297,1.297H228.93c-0.719,0-1.299-0.582-1.299-1.297v-35.74
				c0-0.713,0.58-1.297,1.299-1.297h35.738c0.715,0,1.297,0.584,1.297,1.297V312.898z M265.965,235.078
				c0,0.716-0.582,1.297-1.297,1.297H228.93c-0.719,0-1.299-0.581-1.299-1.297v-35.741c0-0.713,0.58-1.296,1.299-1.296h35.738
				c0.715,0,1.297,0.583,1.297,1.296V235.078z M336.292,390.722c0,0.713-0.584,1.294-1.295,1.294h-35.742
				c-0.715,0-1.297-0.581-1.297-1.294v-35.743c0-0.713,0.582-1.297,1.297-1.297h35.742c0.711,0,1.295,0.583,1.295,1.297V390.722z
				 M337.444,312.898c0,0.717-0.58,1.297-1.295,1.297h-35.742c-0.715,0-1.295-0.582-1.295-1.297V199.337
				c0-0.713,0.58-1.296,1.295-1.296h35.742c0.715,0,1.295,0.583,1.295,1.296V312.898z M343.057,158.38
				c0,3.099-2.521,5.617-5.619,5.617H87.558c-3.099,0-5.618-2.519-5.618-5.617V48.965c0-3.099,2.519-5.62,5.618-5.62h249.878
				c3.099,0,5.619,2.521,5.619,5.62V158.38H343.057z"/>
			<path d="M297.737,60.828c-11.442,0-20.752,9.313-20.752,20.76c0,1.057,0.082,2.096,0.23,3.111l-48.482,28.288
				c-3.782-3.94-9.093-6.403-14.973-6.403c-7.333,0-13.788,3.828-17.479,9.587l-48.357-18.925c0.061-0.628,0.091-1.262,0.091-1.903
				c0-11.451-9.308-20.761-20.752-20.761c-11.451,0-20.762,9.31-20.762,20.761c0,11.445,9.312,20.755,20.762,20.755
				c5.743,0,10.948-2.345,14.717-6.13l51.198,20.042c1.314,10.189,10.041,18.097,20.583,18.097c11.446,0,20.763-9.313,20.763-20.759
				c0-0.499-0.03-0.995-0.062-1.477l49.43-28.841c3.674,3.302,8.529,5.323,13.848,5.323c11.451,0,20.763-9.315,20.763-20.764
				C318.499,70.141,309.186,60.828,297.737,60.828z M127.261,102.09c-3.72,0-6.753-3.028-6.753-6.747
				c0-3.719,3.034-6.748,6.753-6.748c3.712,0,6.745,3.029,6.745,6.748C134.006,99.062,130.973,102.09,127.261,102.09z
				 M213.759,134.092c-3.72,0-6.744-3.025-6.744-6.744c0-3.723,3.024-6.747,6.744-6.747c3.723,0,6.746,3.024,6.746,6.747
				C220.504,131.066,217.482,134.092,213.759,134.092z M297.737,88.333c-3.711,0-6.743-3.022-6.743-6.746
				c0-3.72,3.032-6.744,6.743-6.744c3.72,0,6.754,3.024,6.754,6.744C304.491,85.312,301.456,88.333,297.737,88.333z"/>
		</g>
	</g>
</g>
</svg>